<svg xmlns="http://www.w3.org/2000/svg" viewBox="0 0 512 512">
  <rect width="512" height="512" fill="#10b981" rx="112" />
  <path d="M256 360C198.56 360 152 313.44 152 256C152 198.56 198.56 152 256 152C313.44 152 360 198.56 360 256C360 313.44 313.44 360 256 360ZM256 184C216.32 184 184 216.32 184 256C184 295.68 216.32 328 256 328C295.68 328 328 295.68 328 256C328 216.32 295.68 184 256 184Z" fill="white" />
  <path d="M256 320C220.72 320 192 291.28 192 256C192 220.72 220.72 192 256 192C291.28 192 320 220.72 320 256C320 291.28 291.28 320 256 320ZM256 216C234.02 216 216 234.02 216 256C216 277.98 234.02 296 256 296C277.98 296 296 277.98 296 256C296 234.02 277.98 216 256 216Z" fill="white" opacity="0.5" />
</svg>
